# xmcd
#
# Track frame offsets:
#	150
#	13335
#	26112
#	38677
#	57930
#	71610
#	81412
#	91847
#	105430
#	118180
#	130610
#	142857
#	163095
#	175642
#
# Disc length: 2506 seconds
#
# Revision: 6
# Processed by: cddbd v1.5.1PL0 Copyright (c) Steve Scherf et al.
# Submitted via: audiograbber 1.83.01
#
DISCID=b309c80e
DTITLE=Various Artist - Blues History 1 Part 2
DYEAR=1989
DGENRE=Blues
TTITLE0=John Lee Hooker - Union Station Blues
TTITLE1=Muddy Waters - Appealing Blues (Hello Little Girl)
TTITLE2=Howlin' Wolf - Spoonful
TTITLE3=Etta James - Out On The Street Again
TTITLE4=Memphis Slim - I Guess I'm A Fool
TTITLE5=Buddy Guy - $ 100 Bill
TTITLE6=Sonny Boy Williamson - Let Your Conscience Be Your Guide
TTITLE7=Big Bill Broonzy and Washboard Sam - By Myself
TTITLE8=Little Walter - Off The Wall
TTITLE9=Koko Taylor - I Love A Lover Like You
TTITLE10=J.B. Lenoir - When I'm Drinking
TTITLE11=Lowell Fulson - I Want To Know
TTITLE12=Little Milton - You're Welcome To The Club
TTITLE13=Howlin' Wolf - Highway 49
EXTD=
EXTT0=
EXTT1=
EXTT2=
EXTT3=
EXTT4=
EXTT5=
EXTT6=
EXTT7=
EXTT8=
EXTT9=
EXTT10=
EXTT11=
EXTT12=
EXTT13=
PLAYORDER=
